<svg width="81" height="82" viewBox="0 0 81 82" fill="none" xmlns="http://www.w3.org/2000/svg">
<g clip-path="url(#clip0)">
<path d="M21.0972 17.7567C19.5968 16.2057 17.5295 15.3326 15.3718 15.3388H14.9612C12.8057 15.3344 10.7413 16.2073 9.24251 17.7567C7.83252 19.2068 7.08385 21.1748 7.17318 23.1955L7.32918 26.7858C7.56552 30.8942 11.0023 34.083 15.1158 34.0103H15.2172C19.3307 34.083 22.7675 30.8942 23.0038 26.7858L23.1665 23.1955C23.2558 21.1748 22.5072 19.2068 21.0972 17.7567ZM20.3398 26.6751C20.1592 29.3529 17.8995 31.412 15.2172 31.343H15.1158C12.4335 31.412 10.1738 29.3529 9.99318 26.6751L9.94651 25.5855C12.4882 25.4723 14.9287 24.5562 16.9172 22.9688C17.7372 24.1818 18.975 25.0501 20.3945 25.4081L20.3398 26.6751ZM18.6678 20.3708C18.5937 19.8019 18.164 19.3443 17.6012 19.2345C17.0403 19.1184 16.4687 19.3768 16.1852 19.8746C16.1678 19.9026 14.5132 22.5207 9.84385 22.9208C9.83235 21.6851 10.3075 20.4946 11.1665 19.6066C12.162 18.5805 13.5317 18.0028 14.9612 18.0061H15.3718C16.8013 18.0028 18.171 18.5805 19.1665 19.6066C19.9443 20.4173 20.406 21.48 20.4678 22.602C19.5452 22.1896 18.8758 21.36 18.6678 20.3708Z" fill="black"/>
<path d="M73.0972 49.765C71.5969 48.214 69.5295 47.3409 67.3719 47.3471H66.9612C64.8057 47.3427 62.7414 48.2156 61.2425 49.765C59.8325 51.2151 59.0837 53.1831 59.1732 55.2038L59.3292 58.7941C59.5655 62.9025 63.0024 66.0913 67.1159 66.0186H67.2172C71.3307 66.0913 74.7675 62.9025 75.0038 58.7941L75.1665 55.2038C75.2558 53.1831 74.5072 51.2151 73.0972 49.765ZM72.4999 55.0958L72.3399 58.6834C72.1592 61.3612 69.8995 63.4203 67.2172 63.3513H67.1159C64.4335 63.4203 62.1739 61.3612 61.9932 58.6834L61.8332 55.0891C61.7817 53.7969 62.2639 52.5406 63.1665 51.6149C64.162 50.5888 65.5317 50.0111 66.9612 50.0144H67.3719C68.8014 50.0111 70.171 50.5888 71.1665 51.6149C72.0709 52.5423 72.5532 53.8014 72.4999 55.0958Z" fill="black"/>
<path d="M41.6889 20.0639C40.2582 18.6797 37.9879 18.6797 36.5573 20.0639L21.672 34.9531C21.4216 35.2035 21.082 35.3442 20.728 35.3439H7.16665C3.48666 35.3482 0.504333 38.3313 0.5 42.0123V60.6839C0.5 62.8936 2.29083 64.6849 4.49999 64.6849C4.95416 64.6849 5.40499 64.6077 5.83332 64.4568V66.0186C5.83332 66.7551 6.43032 67.3523 7.16665 67.3523H23.1666C23.9029 67.3523 24.4999 66.7551 24.4999 66.0186V44.3943C24.4998 44.0568 24.6274 43.7318 24.8573 43.4847L41.7759 25.2839C43.1931 23.8186 43.1541 21.4814 41.6889 20.0639ZM39.8717 23.4189C39.8669 23.4236 39.8621 23.4283 39.8572 23.4328L22.9 41.6696C22.2133 42.4106 21.8321 43.3838 21.8333 44.3943V64.6849H8.49998V44.6797C8.49998 43.9431 7.90298 43.346 7.16665 43.346C6.43032 43.346 5.83332 43.9431 5.83332 44.6797V60.6839C5.83332 61.4204 5.23632 62.0175 4.49999 62.0175C3.76366 62.0175 3.16666 61.4204 3.16666 60.6839V42.0123C3.16666 39.8026 4.95749 38.0113 7.16665 38.0113H20.728C21.7898 38.0146 22.8088 37.5925 23.5573 36.839L38.4426 21.9497C38.8484 21.5646 39.4847 21.5646 39.8906 21.9497C40.2909 22.3607 40.2826 23.0185 39.8717 23.4189Z" fill="black"/>
<path d="M15.1668 39.345C14.4305 39.345 13.8335 39.9421 13.8335 40.6787V56.6828C13.8335 57.4194 14.4305 58.0165 15.1668 58.0165C15.9032 58.0165 16.5002 57.4194 16.5002 56.6828V40.6787C16.5002 39.9421 15.9032 39.345 15.1668 39.345Z" fill="black"/>
<path d="M43.757 49.765C42.2582 48.2156 40.1939 47.3427 38.0384 47.3471H37.6277C35.4722 47.3427 33.4079 48.2156 31.909 49.765C30.499 51.2151 29.7502 53.1831 29.8397 55.2038L29.9957 58.794C30.232 62.9025 33.6689 66.0913 37.7824 66.0186H37.8837C41.9972 66.0913 45.434 62.9025 45.6704 58.794L45.8264 55.2038C45.9159 53.1831 45.167 51.2151 43.757 49.765ZM43.1664 55.0958L43.0064 58.6834C42.8257 61.3612 40.566 63.4203 37.8837 63.3512H37.7824C35.1 63.4203 32.8404 61.3612 32.6597 58.6834L32.4997 55.0891C32.4482 53.7969 32.9304 52.5406 33.833 51.6148C34.8285 50.5887 36.1982 50.0111 37.6277 50.0144H38.0384C39.4679 50.0111 40.8375 50.5887 41.833 51.6148C42.7374 52.5423 43.2197 53.8014 43.1664 55.0958Z" fill="black"/>
<path d="M44.7226 67.3523H30.944C27.3867 67.356 24.5037 70.2397 24.5 73.798V79.3554C24.5 80.0919 25.097 80.6891 25.8333 80.6891C26.5697 80.6891 27.1667 80.0919 27.1667 79.3554V73.798C27.1688 71.7121 28.8588 70.0218 30.944 70.0197H44.7226C46.808 70.0218 48.4978 71.7121 48.4999 73.798V79.3554C48.4999 80.0919 49.0969 80.6891 49.8333 80.6891C50.5696 80.6891 51.1666 80.0919 51.1666 79.3554V73.798C51.1629 70.2397 48.2799 67.356 44.7226 67.3523Z" fill="black"/>
<path d="M74.0556 67.3523H60.277C56.7197 67.356 53.8367 70.2397 53.833 73.798V79.3554C53.833 80.0919 54.43 80.6891 55.1663 80.6891C55.9027 80.6891 56.4997 80.0919 56.4997 79.3554V73.798C56.5018 71.7121 58.1918 70.0218 60.277 70.0197H74.0556C76.141 70.0218 77.8308 71.7121 77.833 73.798V79.3554C77.833 80.0919 78.4299 80.6891 79.1663 80.6891C79.9026 80.6891 80.4996 80.0919 80.4996 79.3554V73.798C80.4959 70.2397 77.613 67.356 74.0556 67.3523Z" fill="black"/>
<path d="M76.5663 0.668213H29.7664C27.5769 0.689552 25.8176 2.47919 25.8331 4.66926V24.6745C25.8331 25.411 26.4301 26.0082 27.1664 26.0082C27.9028 26.0082 28.4998 25.411 28.4998 24.6745V8.6703H77.833V40.6787C77.8502 41.3963 77.2838 41.9927 76.5663 42.0123H31.0664C30.3301 42.0123 29.7331 42.6095 29.7331 43.346C29.7331 44.0826 30.3301 44.6797 31.0664 44.6797H76.5663C78.7558 44.6584 80.5151 42.8687 80.4996 40.6787V4.66926C80.5151 2.47919 78.7558 0.689552 76.5663 0.668213ZM77.833 6.00294H28.4998V4.66926C28.4826 3.95157 29.0489 3.35525 29.7664 3.33558H76.5663C77.2838 3.35525 77.8502 3.95157 77.833 4.66926V6.00294Z" fill="black"/>
<path d="M73.8328 17.6726C73.0965 17.6726 72.4995 18.2698 72.4995 19.0063V38.0113C72.4995 38.7478 73.0965 39.3449 73.8328 39.3449C74.5692 39.3449 75.1662 38.7478 75.1662 38.0113V19.0063C75.1662 18.2698 74.5692 17.6726 73.8328 17.6726Z" fill="black"/>
<path d="M68.4998 26.0082C67.7635 26.0082 67.1665 26.6053 67.1665 27.3419V38.0113C67.1665 38.7478 67.7635 39.345 68.4998 39.345C69.2362 39.345 69.8332 38.7478 69.8332 38.0113V27.3419C69.8332 26.6053 69.2362 26.0082 68.4998 26.0082Z" fill="black"/>
<path d="M63.1663 23.3408C62.43 23.3408 61.833 23.938 61.833 24.6745V38.0113C61.833 38.7478 62.43 39.345 63.1663 39.345C63.9027 39.345 64.4997 38.7478 64.4997 38.0113V24.6745C64.4997 23.938 63.9027 23.3408 63.1663 23.3408Z" fill="black"/>
<path d="M57.8333 31.3429C57.097 31.3429 56.5 31.9401 56.5 32.6766V38.0113C56.5 38.7478 57.097 39.345 57.8333 39.345C58.5697 39.345 59.1667 38.7478 59.1667 38.0113V32.6766C59.1667 31.9401 58.5697 31.3429 57.8333 31.3429Z" fill="black"/>
<path d="M74.5733 11.5618C73.9606 11.153 73.1326 11.3184 72.7239 11.9312L68.1719 18.7596L63.9666 15.6055C63.3798 15.1605 62.5434 15.2759 62.0986 15.8629C62.0479 15.9297 62.0038 16.0011 61.9666 16.0763L56.7746 26.4643L51.6999 30.276C51.1108 30.7179 50.9914 31.5538 51.4333 32.1431C51.8751 32.7325 52.7108 32.8518 53.2999 32.4099L58.6333 28.4088C58.8013 28.2851 58.9383 28.1239 59.0333 27.938L63.6506 18.6983L67.6999 21.7404C68.2889 22.1824 69.1248 22.0632 69.5666 21.4739C69.5814 21.4542 69.5956 21.434 69.6093 21.4137L74.9426 13.4116C75.3513 12.7987 75.1859 11.9705 74.5733 11.5618Z" fill="black"/>
<path d="M48.4998 11.3376H32.4998C31.7635 11.3376 31.1665 11.9349 31.1665 12.6716C31.1665 13.4083 31.7635 14.0056 32.4998 14.0056H48.4998C49.2361 14.0056 49.8331 13.4083 49.8331 12.6716C49.8331 11.9349 49.2361 11.3376 48.4998 11.3376Z" fill="black"/>
<path d="M56.5 11.3376H53.8333C53.097 11.3376 52.5 11.9349 52.5 12.6716C52.5 13.4083 53.097 14.0056 53.8333 14.0056H56.5C57.2363 14.0056 57.8333 13.4083 57.8333 12.6716C57.8333 11.9349 57.2363 11.3376 56.5 11.3376Z" fill="black"/>
</g>
<defs>
<clipPath id="clip0">
<rect width="80" height="80.0211" fill="white" transform="translate(0.5 0.668213)"/>
</clipPath>
</defs>
</svg>
