<svg width="81" height="82" viewBox="0 0 81 82" fill="none" xmlns="http://www.w3.org/2000/svg">
<g clip-path="url(#clip0)">
<path d="M74.8301 0.671021H15.3985C12.5546 0.671021 10.2409 3.02922 10.2409 5.92795V16.6714C10.2409 17.327 10.7621 17.8582 11.4052 17.8582C12.0484 17.8582 12.5695 17.327 12.5695 16.6714V5.92795C12.5695 4.33799 13.8386 3.04456 15.3985 3.04456H74.8301C76.3899 3.04456 77.659 4.33799 77.659 5.92795V46.313C77.659 47.539 76.915 48.5913 75.8418 49.0063C75.3253 48.0112 74.249 47.3232 73.004 47.3232H71.6663C70.9078 47.3232 70.2112 47.5783 69.6656 48.0023C69.1199 47.5783 68.4233 47.3232 67.6648 47.3232H66.3271C65.5686 47.3232 64.872 47.5783 64.3264 48.0023C63.7807 47.5783 63.084 47.3232 62.3256 47.3232H60.9881C60.6981 47.3232 60.4185 47.3635 60.1515 47.4332V46.1514H73.2903C74.052 46.1514 74.6719 45.5142 74.6719 44.7306V7.51031C74.6719 6.72688 74.052 6.0895 73.2903 6.0895H18.6313C17.8697 6.0895 17.25 6.72672 17.25 7.51031V42.8536L12.9017 47.6601C12.6883 47.2488 12.5695 46.7882 12.5695 46.313V21.5405C12.5695 20.8849 12.0484 20.3537 11.4052 20.3537C10.7621 20.3537 10.2409 20.8849 10.2409 21.5405V29.2072L2.30859 41.751C-0.161129 45.6565 -0.0967042 50.6597 2.47268 54.4978L7.52219 62.0406C8.23257 63.1017 8.63293 64.3412 8.67981 65.6248L8.9889 74.0714C9.01234 74.7115 9.52867 75.2141 10.1516 75.2141C10.1662 75.2141 10.181 75.2137 10.1957 75.2133C10.8384 75.1889 11.3399 74.6379 11.316 73.9831L11.0069 65.5365C10.9435 63.8054 10.4036 62.1338 9.44561 60.7027L4.39611 53.1599C2.35547 50.1119 2.3044 46.1385 4.26571 43.037L10.2408 33.5881V46.3128C10.2408 47.4578 10.6082 48.5611 11.2703 49.463L10.4804 50.3362C10.0445 50.818 10.0745 51.5688 10.5472 52.0131C11.0198 52.4575 11.7564 52.4272 12.1924 51.9451L24.4246 38.4241C25.0318 37.7532 26.0514 37.7402 26.6779 38.3643C27.1821 38.8666 27.2958 39.6566 26.9546 40.2855L19.601 53.8278C19.0885 54.7712 19.1919 55.9187 19.8641 56.7512C21.3263 58.5618 21.7635 61.0619 21.005 63.2758C20.645 64.3269 20.4494 65.4245 20.4239 66.5378L20.2826 72.7318C20.2676 73.3872 20.7768 73.9306 21.4195 73.946C21.4288 73.9461 21.4379 73.9463 21.4471 73.9463C22.0777 73.9463 22.5959 73.433 22.6106 72.7872L22.7519 66.5932C22.7716 65.728 22.9236 64.8752 23.2035 64.0582C24.2282 61.0671 23.6377 57.6891 21.662 55.2426C21.6009 55.167 21.5916 55.063 21.6382 54.9772L23.4884 51.5699H52.4834V57.2087L48.7772 55.3693C47.3324 54.6527 45.6266 55.0116 44.5323 56.2631C43.1315 57.8654 43.1519 60.3539 44.5787 61.9287L51.554 69.6263C52.1446 70.278 52.4834 71.1934 52.4834 72.1376V80.5012C52.4834 81.1568 53.0045 81.688 53.6477 81.688C54.2908 81.688 54.812 81.1568 54.812 80.5012V72.1376C54.812 70.5807 54.2624 69.1169 53.2646 68.0157L46.2893 60.3182C45.687 59.6536 45.6784 58.5197 46.2708 57.8423C46.6698 57.3859 47.2533 57.253 47.7577 57.5033L53.1379 60.1734C53.9124 60.5596 54.8118 59.9734 54.8118 59.1064V38.8017C54.8118 37.8031 55.4873 36.9907 56.3172 36.9907C57.1471 36.9907 57.8224 37.8032 57.8224 38.8017V59.1064C57.8224 59.762 58.3436 60.2932 58.9867 60.2932C59.6299 60.2932 60.151 59.762 60.151 59.1064V50.329C60.151 49.9863 60.5342 49.6967 60.9876 49.6967H62.3252C62.7786 49.6967 63.1618 49.9863 63.1618 50.329V59.1064C63.1618 59.762 63.6829 60.2932 64.3261 60.2932C64.9692 60.2932 65.4904 59.762 65.4904 59.1064V50.329C65.4904 49.9863 65.8733 49.6967 66.3268 49.6967H67.6645C68.118 49.6967 68.5009 49.9863 68.5009 50.329V59.1064C68.5009 59.762 69.0221 60.2932 69.6652 60.2932C70.3084 60.2932 70.8295 59.762 70.8295 59.1064V50.329C70.8295 49.9863 71.2127 49.6967 71.6661 49.6967H73.0038C73.4573 49.6967 73.8403 49.9863 73.8403 50.329V59.1064C73.8403 59.2287 73.8667 59.3828 73.9036 59.4923L74.999 62.7384C75.2545 63.496 75.3548 64.3239 75.2887 65.1324C75.2354 65.7856 75.7117 66.3592 76.3525 66.4136C76.3854 66.4164 76.418 66.4175 76.4505 66.4175C77.0496 66.4175 77.5589 65.9489 77.6095 65.3292C77.702 64.1956 77.5609 63.0326 77.2009 61.9664L76.169 58.9081V51.3906C78.3944 50.7881 79.9876 48.735 79.9876 46.3128V5.92795C79.9875 3.02922 77.6739 0.671021 74.8301 0.671021ZM24.7773 49.1964L26.4308 46.1514H52.4835V49.1964H24.7773ZM56.3175 34.6171C54.2724 34.6171 52.5964 36.3739 52.4891 38.5771H48.7506C48.2903 38.5771 47.9159 38.1955 47.9159 37.7263V32.6134C47.9159 32.1442 48.2903 31.7625 48.7506 31.7625H53.9897C54.6328 31.7625 55.154 31.2313 55.154 30.5758C55.154 29.9202 54.6328 29.389 53.9897 29.389H48.7506C47.0063 29.389 45.5873 30.8354 45.5873 32.6134V37.7263C45.5873 39.5042 47.0063 40.9507 48.7506 40.9507H52.4834V43.7779H27.7196L28.9919 41.4347C29.8392 39.8739 29.557 37.9132 28.3053 36.6666C26.736 35.1034 24.2071 35.163 22.7128 36.815L19.5786 40.2795V8.46305H72.3433V43.7779H60.1515V40.9507H64.3807C66.125 40.9507 67.544 39.5042 67.544 37.7263V32.6134C67.544 30.8354 66.125 29.389 64.3807 29.389H58.6452C58.002 29.389 57.4809 29.9202 57.4809 30.5758C57.4809 31.2313 58.002 31.7625 58.6452 31.7625H64.3807C64.841 31.7625 65.2154 32.1442 65.2154 32.6134V37.7263C65.2154 38.1955 64.841 38.5771 64.3807 38.5771H60.1457C60.0383 36.3737 58.3623 34.6171 56.3175 34.6171Z" fill="black"/>
<path d="M16.1084 27.0858V25.1551C16.1084 24.4993 15.5872 23.968 14.9441 23.968C14.3009 23.968 13.7798 24.4993 13.7798 25.1551V27.0858C13.7798 27.7416 14.3009 28.2729 14.9441 28.2729C15.5872 28.2729 16.1084 27.7414 16.1084 27.0858Z" fill="black"/>
<path d="M75.1895 68.7412C74.6443 68.3934 73.926 68.5619 73.5847 69.1175L72.1575 71.4418C71.512 72.4925 71.1709 73.7193 71.1709 74.9891V80.5005C71.1709 81.1561 71.692 81.6873 72.3352 81.6873C72.9784 81.6873 73.4995 81.1561 73.4995 80.5005V74.9891C73.4995 74.1652 73.7179 73.374 74.1312 72.7012L75.5586 70.3769C75.8997 69.8213 75.7345 69.089 75.1895 68.7412Z" fill="black"/>
<path d="M47.9716 17.4137L35.6146 10.4826C35.1785 10.2383 34.658 10.2386 34.2213 10.483L21.8648 17.4139C21.4033 17.6729 21.1167 18.1675 21.1167 18.7044C21.1167 19.2413 21.4034 19.7361 21.8651 19.9953L25.6912 22.1413V30.3748C25.6912 31.373 26.2761 32.2673 27.1813 32.6536C32.3153 34.8433 37.5213 34.8434 42.6557 32.6534C43.5607 32.2673 44.1455 31.3728 44.1455 30.3748V22.1413L47.9716 19.9952C48.4334 19.7361 48.7202 19.2415 48.7202 18.7044C48.7202 18.1674 48.4334 17.6726 47.9716 17.4137ZM41.8168 30.3748C41.8168 30.4134 41.793 30.4484 41.7564 30.4639C37.1552 32.4267 32.6815 32.4268 28.0803 30.4641C28.0435 30.4483 28.0196 30.4133 28.0196 30.3748V23.4474L34.2205 26.9254C34.439 27.0481 34.6787 27.1095 34.9183 27.1095C35.1577 27.1095 35.3971 27.0482 35.6151 26.9259L38.5173 25.298V27.8546C38.5173 28.5102 39.0384 29.0414 39.6816 29.0414C40.3247 29.0414 40.8459 28.5102 40.8459 27.8546V23.9919L41.8165 23.4476V30.3748H41.8168ZM39.8642 21.8334L35.7178 17.8416C35.2504 17.3915 34.5135 17.4128 34.072 17.8895C33.6303 18.366 33.6514 19.1171 34.119 19.5671L37.7214 23.0352L34.9182 24.6074C32.0248 22.9846 27.6921 20.5544 24.3938 18.7043L34.9182 12.8011L45.4427 18.7043C44.0667 19.4763 41.2328 21.0658 39.8642 21.8334Z" fill="black"/>
<path d="M52.9387 18.7702H61.6567C62.2999 18.7702 62.821 18.2389 62.821 17.5832C62.821 16.9274 62.2999 16.3961 61.6567 16.3961H52.9387C52.2956 16.3961 51.7744 16.9274 51.7744 17.5832C51.7744 18.2389 52.2957 18.7702 52.9387 18.7702Z" fill="black"/>
<path d="M69.0306 23.0276C69.0306 22.3719 68.5095 21.8406 67.8663 21.8406H52.9387C52.2956 21.8406 51.7744 22.3719 51.7744 23.0276C51.7744 23.6833 52.2956 24.2147 52.9387 24.2147H67.8663C68.5095 24.2147 69.0306 23.6833 69.0306 23.0276Z" fill="black"/>
</g>
<defs>
<clipPath id="clip0">
<rect width="79.4874" height="81.0213" fill="white" transform="translate(0.5 0.668213)"/>
</clipPath>
</defs>
</svg>
