<svg width="63" height="63" viewBox="0 0 63 63" fill="none" xmlns="http://www.w3.org/2000/svg">
<g opacity="0.8" clip-path="url(#clip0)">
<rect x="17.0649" y="17.2483" width="29.4652" height="29.4652" fill="white"/>
<path d="M61.7058 18.7955C61.7058 18.7955 61.1013 14.5213 59.2374 12.6458C56.8776 10.1775 54.2348 10.162 53.0258 10.0186C44.3574 9.38696 31.3374 9.38696 31.3374 9.38696H31.3142C31.3142 9.38696 18.2981 9.38696 9.62581 10.0186C8.41293 10.1658 5.77406 10.1775 3.41418 12.6458C1.55031 14.5213 0.957434 18.7955 0.957434 18.7955C0.957434 18.7955 0.341309 23.8097 0.341309 28.8356V33.536C0.341309 38.5502 0.957434 43.5761 0.957434 43.5761C0.957434 43.5761 1.56193 47.8502 3.41418 49.7296C5.77406 52.198 8.87406 52.1166 10.2574 52.3801C15.2213 52.8528 31.3413 52.9962 31.3413 52.9962C31.3413 52.9962 44.3729 52.973 53.0413 52.353C54.2542 52.2096 56.8931 52.1941 59.2529 49.7257C61.1168 47.8502 61.7213 43.5722 61.7213 43.5722C61.7213 43.5722 62.3374 38.558 62.3374 33.5321V28.8317C62.3258 23.8175 61.7097 18.7916 61.7097 18.7916L61.7058 18.7955ZM24.9166 39.2361V21.8102L41.6643 30.5522L24.9166 39.2361Z" fill="black"/>
</g>
<defs>
<clipPath id="clip0">
<rect width="62" height="62" fill="white" transform="translate(0.322266 0.195312)"/>
</clipPath>
</defs>
</svg>
